<svg width="18" height="20" viewBox="0 0 18 20" fill="none" xmlns="http://www.w3.org/2000/svg">
<g clip-path="url(#clip0_77_239)">
<path d="M1.76133 0.0586243C1.13907 0.210968 0.54141 0.726593 0.253128 1.36722C-0.0175748 1.96487 3.35657e-06 1.35159 3.35657e-06 10C3.35657e-06 18.6485 -0.0175748 18.0352 0.253128 18.6328C0.509769 19.1992 0.9668 19.6367 1.55391 19.875L1.81055 19.9805L8.88399 19.9922C16.7941 20.0039 16.2246 20.0235 16.766 19.7188C17.2898 19.4258 17.7223 18.8555 17.9051 18.2227L17.9824 17.9492V10V2.05081L17.9051 1.77737C17.7223 1.14066 17.2898 0.570343 16.7695 0.281281C16.2316 -0.0195007 16.7871 3.05176e-05 8.98243 0.00393677C3.15352 0.00393677 1.94766 0.0156555 1.76133 0.0586243ZM16.1473 1.79691C16.2211 1.85159 16.323 1.96487 16.3758 2.04691L16.4707 2.19925V10V17.7969L16.3828 17.9414C16.3336 18.0235 16.2316 18.1367 16.1578 18.1953L16.0207 18.3008H9H1.9793L1.84219 18.1953C1.76836 18.1367 1.66641 18.0235 1.61719 17.9414L1.5293 17.7969V9.99612V2.19534L1.63477 2.02737C1.69453 1.93753 1.81055 1.82034 1.89493 1.76956L2.04961 1.67972L9.03516 1.68753L16.0172 1.69925L16.1473 1.79691Z" fill="#D72500"/>
<path d="M4.0254 10.875C3.5086 11.0156 3.13946 11.4414 3.02696 12.0234C2.97423 12.3047 2.97423 15.1914 3.02696 15.4766C3.13946 16.0703 3.53321 16.5078 4.0711 16.6367C4.33126 16.6992 13.6652 16.6992 13.9289 16.6367C14.4633 16.5117 14.857 16.0742 14.9731 15.4766C15.0258 15.1953 15.0258 12.3047 14.9731 12.0234C14.857 11.4258 14.4633 10.9883 13.9289 10.8633C13.6512 10.8008 4.26798 10.8086 4.0254 10.875Z" fill="#D72500"/>
</g>
<defs>
<clipPath id="clip0_77_239">
<rect width="18" height="20" fill="white"/>
</clipPath>
</defs>
</svg>
