<svg width="18" height="20" viewBox="0 0 18 20" fill="none" xmlns="http://www.w3.org/2000/svg">
<g clip-path="url(#clip0_77_230)">
<path d="M1.32539 0.0390625C0.703125 0.15625 0.140625 0.796875 0.0351566 1.50781C-0.0105465 1.82031 -0.0105465 18.1797 0.0351566 18.4922C0.140625 19.2227 0.69961 19.8438 1.35703 19.9609C1.63828 20.0117 16.3617 20.0117 16.643 19.9609C17.3004 19.8438 17.8594 19.2227 17.9648 18.4922C18.0105 18.1797 18.0105 1.82031 17.9648 1.50781C17.8594 0.777344 17.3004 0.15625 16.643 0.0390625C16.3898 -0.0078125 1.57148 -0.00390625 1.32539 0.0390625ZM16.7168 1.00391C16.882 1.10156 17.0156 1.25391 17.107 1.44531C17.1668 1.56641 17.1738 1.69531 17.1844 2.60547L17.1949 3.63281H9H0.805079L0.815625 2.60547C0.826172 1.69531 0.833204 1.56641 0.892969 1.44531C1.01953 1.17578 1.21641 1 1.45898 0.933594C1.51875 0.917969 4.94297 0.910156 9.07031 0.910156L16.5762 0.917969L16.7168 1.00391ZM17.1844 5.90625L17.1914 7.26562H9H0.808594V5.92578C0.808594 5.1875 0.819141 4.57031 0.833204 4.55859C0.84375 4.54297 4.52813 4.53516 9.01406 4.53906L17.1738 4.55078L17.1844 5.90625ZM17.1738 13.3008C17.1738 18.2188 17.1703 18.4219 17.107 18.5547C17.0156 18.7461 16.882 18.8984 16.7168 18.9961L16.5762 19.082H9C1.67695 19.082 1.42031 19.0781 1.30078 19.0078C1.12852 18.9062 0.991407 18.7578 0.903516 18.5742L0.826172 18.418L0.815625 13.3398C0.81211 10.5469 0.815625 8.24219 0.826172 8.21484C0.836719 8.17188 2.4293 8.16406 9.00703 8.17188L17.1738 8.18359V13.3008Z" fill="#D72500"/>
<path d="M1.77187 1.96876C1.66992 2.08204 1.65234 2.12892 1.65234 2.27735C1.65234 2.7422 2.21484 2.87892 2.40117 2.45704C2.47852 2.27735 2.45039 2.10157 2.31328 1.94923C2.22891 1.85939 2.17969 1.83595 2.04961 1.83595C1.91602 1.83595 1.87383 1.85548 1.77187 1.96876Z" fill="#D72500"/>
<path d="M3.41719 1.94534C3.28359 2.08206 3.24844 2.25393 3.31875 2.43362C3.44531 2.77347 3.88125 2.80862 4.02891 2.49222C4.1168 2.30081 4.09219 2.11722 3.95859 1.96878C3.85664 1.8555 3.81445 1.83597 3.68086 1.83597C3.55781 1.83597 3.50156 1.8594 3.41719 1.94534Z" fill="#D72500"/>
<path d="M5.04141 1.96873C4.95 2.07029 4.92188 2.13279 4.92188 2.24217C4.92188 2.75389 5.50898 2.89842 5.68477 2.42967C5.79375 2.1367 5.60742 1.83592 5.30859 1.83592C5.18906 1.83592 5.13984 1.85935 5.04141 1.96873Z" fill="#D72500"/>
<path d="M5.04141 5.60154C4.90781 5.74998 4.8832 5.93747 4.97461 6.12888C5.09062 6.37888 4.88672 6.36716 9 6.36716C13.1133 6.36716 12.9094 6.37888 13.0254 6.12888C13.1168 5.93747 13.0922 5.74998 12.9586 5.60154L12.8391 5.46873H9H5.16094L5.04141 5.60154Z" fill="#D72500"/>
</g>
<defs>
<clipPath id="clip0_77_230">
<rect width="18" height="20" fill="white"/>
</clipPath>
</defs>
</svg>
